
<svg width="132px" height="70px" viewBox="587 59 132 70" version="1.1" xmlns="http://www.w3.org/2000/svg" xmlns:xlink="http://www.w3.org/1999/xlink">
    <!-- Generator: Sketch 42 (36781) - http://www.bohemiancoding.com/sketch -->
    <desc>Created with Sketch.</desc>
    <defs></defs>
    <g id="logo-white" stroke="none" stroke-width="1" fill="none" fill-rule="evenodd" transform="translate(587.000000, 59.000000)">
        <path d="M35.976,42.16 C37.6080082,42.16 38.9919943,42.7279943 40.128,43.864 C41.2640057,45.0000057 41.832,46.367992 41.832,47.968 L41.832,70 L19.272,70 C17.671992,70 16.3040057,69.4320057 15.168,68.296 C14.0319943,67.1599943 13.464,65.792008 13.464,64.192 L13.464,54.112 L37.848,54.112 L37.848,47.968 C37.848,47.4559974 37.6640018,47.0160018 37.296,46.648 C36.9279982,46.2799982 36.4880026,46.096 35.976,46.096 L13.464,46.096 L13.464,42.16 L35.976,42.16 Z M37.848,66.064 L37.848,58.048 L17.4,58.048 L17.4,64.192 C17.4,64.7040026 17.5839982,65.1439982 17.952,65.512 C18.3200018,65.8800018 18.7599974,66.064 19.272,66.064 L37.848,66.064 Z M63.808,46.096 L51.76,46.096 L51.76,64.192 C51.76,64.7040026 51.9439982,65.1439982 52.312,65.512 C52.6800018,65.8800018 53.1199974,66.064 53.632,66.064 L63.808,66.064 L63.808,70 L53.632,70 C51.9999918,70 50.6240056,69.4320057 49.504,68.296 C48.3839944,67.1599943 47.824,65.792008 47.824,64.192 L47.824,33.04 L51.76,33.04 L51.76,42.16 L63.808,42.16 L63.808,46.096 Z M74.216,66.064 L96.776,66.064 L96.776,70 L74.216,70 C72.615992,70 71.2480057,69.4320057 70.112,68.296 C68.9759943,67.1599943 68.408,65.792008 68.408,64.192 L68.408,47.968 C68.408,46.367992 68.9759943,45.0000057 70.112,43.864 C71.2480057,42.7279943 72.615992,42.16 74.216,42.16 L96.68,42.16 L96.68,46.096 L74.216,46.096 C73.7039974,46.096 73.2640018,46.2799982 72.896,46.648 C72.5279982,47.0160018 72.344,47.4559974 72.344,47.968 L72.344,64.192 C72.344,64.7040026 72.5279982,65.1439982 72.896,65.512 C73.2640018,65.8800018 73.7039974,66.064 74.216,66.064 Z M125.328,42.16 C126.960008,42.16 128.343994,42.7279943 129.48,43.864 C130.616006,45.0000057 131.184,46.367992 131.184,47.968 L131.184,70 L108.624,70 C107.023992,70 105.656006,69.4320057 104.52,68.296 C103.383994,67.1599943 102.816,65.792008 102.816,64.192 L102.816,54.112 L127.2,54.112 L127.2,47.968 C127.2,47.4559974 127.016002,47.0160018 126.648,46.648 C126.279998,46.2799982 125.840003,46.096 125.328,46.096 L102.816,46.096 L102.816,42.16 L125.328,42.16 Z M127.2,66.064 L127.2,58.048 L106.752,58.048 L106.752,64.192 C106.752,64.7040026 106.935998,65.1439982 107.304,65.512 C107.672002,65.8800018 108.111997,66.064 108.624,66.064 L127.2,66.064 Z" id="Patca" fill="#FFFFFF"></path>
        <path d="M4,27.7684547 L4,70 L0,70 L0,25.3842273 L0,0 L125,0 C126.666675,0 128.083327,0.704265358 129.25,2.1128172 C130.416672,3.52136905 131,5.23172777 131,7.24394469 L131,19.9812141 C131,21.993431 130.416672,23.7037898 129.25,25.1123416 C128.083327,26.5208935 126.666675,27.7684547 125,27.7684547 L102,27.7684547 C101.699998,27.7684547 100.000005,27.929432 99,27.7684547 L88,27.7684547 L4,27.7684547 Z M4,4 L4,22.9511723 L85.4576271,22.9511723 L96.0847458,22.9511723 C97.0508523,23.0610347 98.6932189,22.9511723 98.9830508,22.9511723 L121.20339,22.9511723 C122.813567,22.9511723 124.182198,22.0997476 125.309322,21.1384514 C126.436446,20.1771553 127,19.0098846 127,17.6366044 L127,8.94378407 C127,7.57050385 126.436446,6.40323317 125.309322,5.44193702 C124.182198,4.48064087 122.813567,4 121.20339,4 L4,4 Z" id="Combined-Shape" fill="#FFFFFF"></path>
    </g>
</svg>